<svg xmlns="http://www.w3.org/2000/svg" width="142.76" height="142.76" viewBox="0 0 142.76 142.76">
  <path id="Path_4" data-name="Path 4" d="M142.758,71.816C142.758,32.152,110.8,0,71.387,0,31.954.008,0,32.152,0,71.825a71.7,71.7,0,0,0,60.219,70.934V92.576H42.107V71.825H60.235V55.99C60.235,38,70.9,28.057,87.2,28.057a109.17,109.17,0,0,1,15.978,1.4V47.122h-9c-8.859,0-11.625,5.54-11.625,11.223V71.816h19.788L99.177,92.567H82.539V142.75A71.7,71.7,0,0,0,142.758,71.816Z" transform="translate(0.002 0.001)" stroke-width="0"/>
</svg>
