<svg id="Group_8" data-name="Group 8" xmlns="http://www.w3.org/2000/svg" width="26.365" height="26.367" viewBox="0 0 26.365 26.367">
  <path id="Path_13" data-name="Path 13" d="M4.846,27.041a7.142,7.142,0,0,0,10.089,0L18.97,23l-2.017-2.017-4.035,4.036A4.281,4.281,0,1,1,6.863,18.97L10.9,14.935,8.882,12.917,4.846,16.952A7.142,7.142,0,0,0,4.846,27.041ZM27.041,14.935A7.134,7.134,0,0,0,16.952,4.846L12.917,8.882,14.935,10.9,18.97,6.863a4.281,4.281,0,0,1,6.054,6.054l-4.036,4.035L23,18.97l4.036-4.035Z" transform="translate(-2.76 -2.76)" stroke-width="0"/>
  <path id="Path_14" data-name="Path 14" d="M9.068,21.175,7.049,19.158,19.158,7.05l2.017,2.019Z" transform="translate(-0.93 -0.929)"  stroke-width="0"/>
</svg>
